<svg style="position: absolute; width: 0; height: 0; overflow: hidden;" version="1.1" xmlns="http://www.w3.org/2000/svg" xmlns:xlink="http://www.w3.org/1999/xlink">
<defs>
<symbol id="icon-camera" viewBox="0 0 64 64">
<title>camera</title>
<path d="M19 38c0 7.18 5.82 13 13 13s13-5.82 13-13-5.82-13-13-13-13 5.82-13 13zM60 16h-14c-1-4-2-8-6-8h-16c-4 0-5 4-6 8h-14c-2.2 0-4 1.8-4 4v36c0 2.2 1.8 4 4 4h56c2.2 0 4-1.8 4-4v-36c0-2.2-1.8-4-4-4zM32 55.75c-9.803 0-17.75-7.947-17.75-17.75s7.947-17.75 17.75-17.75c9.803 0 17.75 7.947 17.75 17.75s-7.947 17.75-17.75 17.75zM60 28h-8v-4h8v4z"></path>
</symbol>
<symbol id="icon-envelop" viewBox="0 0 64 64">
<title>envelop</title>
<path d="M58 8h-52c-3.3 0-6 2.7-6 6v40c0 3.3 2.7 6 6 6h52c3.3 0 6-2.7 6-6v-40c0-3.3-2.7-6-6-6zM24.921 34.398l-16.921 13.181v-31.353l16.921 18.172zM11.024 16h41.953l-20.976 15.75-20.976-15.75zM25.581 35.106l6.419 6.894 6.419-6.894 13.16 16.894h-39.158l13.16-16.894zM39.079 34.398l16.921-18.172v31.353l-16.921-13.181z"></path>
</symbol>
<symbol id="icon-display" viewBox="0 0 64 64">
<title>display</title>
<path d="M0 4v40h64v-40h-64zM60 40h-56v-32h56v32zM42 48h-20l-2 8-4 4h32l-4-4z"></path>
</symbol>
</defs>
</svg>
